<?xml version="1.0" standalone="no"?>
<!DOCTYPE svg PUBLIC "-//W3C//DTD SVG 20010904//EN"
 "http://www.w3.org/TR/2001/REC-SVG-20010904/DTD/svg10.dtd">
<svg version="1.0" xmlns="http://www.w3.org/2000/svg"
 width="4096.000000pt" height="2160.000000pt" viewBox="0 0 4096.000000 2160.000000"
 preserveAspectRatio="xMidYMid meet">

<g transform="translate(0.000000,2160.000000) scale(0.100000,-0.100000)"
fill="#000000" stroke="none">
<path d="M9170 21590 c0 -5 11 -83 24 -172 62 -413 80 -668 81 -1138 0 -485
-21 -774 -90 -1209 -279 -1786 -1190 -3439 -2550 -4627 -960 -838 -2111 -1429
-3350 -1718 -332 -77 -627 -125 -1055 -173 -238 -26 -1166 -26 -1405 0 -236
26 -506 64 -659 92 -75 14 -142 25 -151 25 -13 0 -15 -592 -15 -5724 l0 -5724
32 -7 c1001 -205 1946 -592 2745 -1127 l132 -88 13335 0 13335 0 89 178 c380
757 868 1422 1499 2042 285 281 468 439 775 668 1181 881 2575 1406 4053 1524
214 17 967 17 1185 0 1294 -103 2483 -504 3608 -1218 90 -57 166 -104 168
-104 2 0 4 3307 4 7348 l0 7349 -237 6 c-1312 37 -2609 418 -3758 1105 -1066
637 -2009 1580 -2646 2644 l-34 57 -12557 1 c-8068 0 -12558 -3 -12558 -10z
m11960 -3065 c923 -85 1740 -300 2585 -680 117 -53 435 -215 561 -286 863
-487 1623 -1130 2232 -1887 854 -1061 1401 -2284 1622 -3622 73 -446 95 -733
95 -1250 0 -519 -22 -806 -95 -1250 -327 -1981 -1393 -3743 -2993 -4946 -1089
-818 -2369 -1333 -3730 -1499 -367 -44 -471 -50 -937 -49 -475 0 -621 9 -1000
60 -1042 139 -2005 469 -2900 992 -1248 729 -2251 1774 -2938 3058 -432 809
-723 1726 -841 2654 -48 371 -55 506 -55 980 0 474 7 609 55 980 243 1905
1187 3657 2639 4901 826 706 1776 1227 2805 1537 616 185 1189 285 1870 326
157 9 860 -3 1025 -19z"/>
</g>
</svg>
