<?xml version="1.0" standalone="no"?>
<!DOCTYPE svg PUBLIC "-//W3C//DTD SVG 20010904//EN"
 "http://www.w3.org/TR/2001/REC-SVG-20010904/DTD/svg10.dtd">
<svg version="1.0" xmlns="http://www.w3.org/2000/svg"
 width="4096.000000pt" height="2160.000000pt" viewBox="0 0 4096.000000 2160.000000"
 preserveAspectRatio="xMidYMid meet">

<g transform="translate(0.000000,2160.000000) scale(0.100000,-0.100000)"
fill="#000000" stroke="none">
<path d="M2 17138 l3 -4462 121 -22 c171 -32 441 -70 666 -95 242 -26 911 -37
1203 -20 664 39 1376 179 2015 396 1550 528 2872 1507 3819 2830 772 1078
1253 2332 1400 3650 36 324 45 485 45 855 0 455 -17 700 -81 1143 l-26 187
-4584 0 -4583 0 2 -4462z"/>
<path d="M34290 21596 c0 -10 161 -264 255 -402 284 -417 545 -736 888 -1083
492 -497 965 -870 1539 -1214 700 -420 1450 -723 2238 -905 536 -124 1168
-201 1653 -202 l97 0 0 1905 0 1905 -3335 0 c-1834 0 -3335 -2 -3335 -4z"/>
<path d="M20145 18544 c-1126 -58 -2152 -325 -3135 -815 -1271 -635 -2354
-1621 -3107 -2829 -605 -971 -996 -2091 -1123 -3219 -37 -332 -45 -481 -44
-886 0 -514 24 -822 104 -1290 477 -2810 2450 -5126 5145 -6042 1540 -523
3193 -548 4760 -73 1208 366 2326 1038 3214 1930 607 610 1078 1265 1455 2022
1075 2157 1088 4678 35 6846 -864 1780 -2391 3173 -4230 3860 -719 269 -1385
417 -2169 482 -126 11 -776 21 -905 14z"/>
<path d="M36165 4419 c-1745 -92 -3420 -782 -4740 -1953 -138 -122 -412 -395
-555 -551 -488 -534 -898 -1129 -1219 -1772 l-71 -143 5690 0 5690 0 0 1540 0
1541 -127 83 c-990 644 -2110 1058 -3263 1205 -430 55 -958 74 -1405 50z"/>
<path d="M0 610 l0 -610 1452 0 c820 0 1448 4 1442 9 -16 15 -185 126 -294
193 -640 394 -1336 695 -2066 893 -107 29 -514 125 -530 125 -2 0 -4 -274 -4
-610z"/>
</g>
</svg>
